Coordinates
version=1
nRows=24
nColumns=24
inDegrees=yes

Units are S.I. units (second, meters, Newtons, ...)
Angles are in degrees.

endheader
time	pelvis_tilt	pelvis_list	pelvis_rotation	pelvis_tx	pelvis_ty	pelvis_tz	hip_flexion_r	hip_adduction_r	hip_rotation_r	knee_angle_r	ankle_angle_r	subtalar_angle_r	mtp_angle_r	hip_flexion_l	hip_adduction_l	hip_rotation_l	knee_angle_l	ankle_angle_l	subtalar_angle_l	mtp_angle_l	lumbar_extension	lumbar_bending	lumbar_rotation
      6.58000000	     13.42108423	      6.18286247	      2.36761647	      2.39399393	      0.94046007	     -0.26806383	     -4.67342707	     -8.77380236	     -2.92512125	    -63.77417152	     12.32863787	     -3.87700113	      0.00000000	     -9.70013655	      9.31754370	     11.29142918	    -11.47372771	     15.49773418	     -4.98457849	      0.00000000	    -28.39795403	     -6.19341462	     -1.03657629
      6.58500000	     13.41034384	      5.95042229	      2.60609436	      2.39946921	      0.94107000	     -0.26855798	     -3.88064419	     -8.49864311	     -3.10170610	    -63.69480369	     13.02103417	     -4.31575100	      0.00000000	    -10.19929298	      8.99830193	     11.42435328	    -11.18790877	     15.67752214	     -4.85873127	      0.00000000	    -28.42044127	     -5.78403765	     -1.36811024
      6.59000000	     13.39232641	      5.73005417	      2.85204035	      2.40500854	      0.94165132	     -0.26901456	     -3.10416532	     -8.23322232	     -3.28651606	    -63.52616630	     13.69757977	     -4.65637553	      0.00000000	    -10.70646887	      8.68165746	     11.56391485	    -10.87026135	     15.83942463	     -4.72929775	      0.00000000	    -28.41719423	     -5.39515514	     -1.73596646
      6.59500000	     13.37557572	      5.49517914	      3.03382750	      2.41052890	      0.94220675	     -0.26940121	     -2.32351452	     -7.95868523	     -3.40689281	    -63.28084954	     14.37651062	     -4.86769984	      0.00000000	    -11.21372564	      8.35815243	     11.61918067	    -10.53174475	     15.93821855	     -4.63523363	      0.00000000	    -28.41109223	     -5.01421176	     -2.01029076
      6.60000000	     13.34870222	      5.27095093	      3.29983075	      2.41595346	      0.94269750	     -0.26986801	     -1.56319302	     -7.69709488	     -3.63202405	    -62.94979646	     15.03837550	     -5.07683191	      0.00000000	    -11.68251729	      8.02971783	     11.69918908	    -10.24885559	     16.12529412	     -4.45662875	      0.00000000	    -28.41429951	     -4.60779172	     -2.37386367
      6.60500000	     13.31805125	      5.06021871	      3.52932105	      2.42143460	      0.94316495	     -0.27023657	     -0.81283883	     -7.44559710	     -3.80914906	    -62.53726073	     15.68303269	     -5.16112518	      0.00000000	    -12.16500259	      7.71274713	     11.76167733	     -9.92243627	     16.23637235	     -4.30793172	      0.00000000	    -28.39958930	     -4.24199382	     -2.71995085
      6.61000000	     13.29242330	      4.87956962	      3.84115728	      2.42688655	      0.94359892	     -0.27069614	     -0.11146080	     -7.23351744	     -4.09354360	    -62.03115994	     16.30460696	     -5.24711000	      0.00000000	    -12.64170466	      7.40853210	     11.86128367	     -9.62466744	     16.38029790	     -4.11770608	      0.00000000	    -28.39889367	     -3.87145133	     -3.18281644
      6.61500000	     13.25782038	      4.67672414	      4.02282060	      2.43232635	      0.94396888	     -0.27100948	      0.62150232	     -6.99838788	     -4.22835018	    -61.46578986	     16.93727457	     -5.17689157	      0.00000000	    -13.10975661	      7.10826307	     11.84862950	     -9.29934970	     16.47423528	     -3.99991945	      0.00000000	    -28.38120404	     -3.53500072	     -3.46348184
      6.62000000	     13.22900921	      4.50787081	      4.33748233	      2.43776993	      0.94432198	     -0.27141525	      1.28353898	     -6.80084291	     -4.51877248	    -60.79372481	     17.52309368	     -5.14265749	      0.00000000	    -13.57594238	      6.80525281	     11.90031611	     -9.00443771	     16.62675203	     -3.76035151	      0.00000000	    -28.37537499	     -3.17903378	     -3.92628348
      6.62500000	     13.20033564	      4.33507266	      4.57264464	      2.44320060	      0.94461554	     -0.27176313	      1.94710408	     -6.60504025	     -4.72606935	    -60.05493592	     18.12129955	     -4.99387649	      0.00000000	    -14.04119936	      6.51961970	     11.89064879	     -8.69850518	     16.74925730	     -3.60994594	      0.00000000	    -28.36680401	     -2.84838876	     -4.27567324
      6.63000000	     13.15638205	      4.16854611	      4.77711856	      2.44862823	      0.94486147	     -0.27199464	      2.61365391	     -6.40301448	     -4.87759500	    -59.24119319	     18.69411129	     -4.78585277	      0.00000000	    -14.48988300	      6.24064466	     11.85995297	     -8.38496559	     16.83569558	     -3.45219268	      0.00000000	    -28.34444166	     -2.55884414	     -4.59891301
      6.63500000	     13.14446678	      4.03159639	      5.09308778	      2.45404970	      0.94512474	     -0.27234248	      3.18230415	     -6.24132626	     -5.16556831	    -58.31890625	     19.22694159	     -4.61131142	      0.00000000	    -14.96576629	      5.95837910	     11.88000396	     -8.09382337	     16.94370021	     -3.21415673	      0.00000000	    -28.36294704	     -2.23843086	     -5.07630189
      6.64000000	     13.10057247	      3.88816538	      5.27871032	      2.45948141	      0.94527664	     -0.27254819	      3.79907265	     -6.06987646	     -5.30298746	    -57.34525196	     19.77294125	     -4.31798911	      0.00000000	    -15.40953474	      5.70854309	     11.80559126	     -7.78851835	     17.03469587	     -3.09978117	      0.00000000	    -28.33888093	     -1.98073903	     -5.36908684
      6.64500000	     13.10349026	      3.76624937	      5.58460189	      2.46489639	      0.94547923	     -0.27284011	      4.29891276	     -5.92004154	     -5.56844427	    -56.25932153	     20.26971754	     -4.07091998	      0.00000000	    -15.89681030	      5.43564981	     11.81212172	     -7.50014153	     17.12815003	     -2.85684078	      0.00000000	    -28.37804449	     -1.68237137	     -5.84061534
      6.65000000	     13.10300450	      3.64658310	      5.82692411	      2.47032652	      0.94562049	     -0.27305849	      4.78893888	     -5.77029468	     -5.76132141	    -55.10195189	     20.76246444	     -3.75297266	      0.00000000	    -16.38168227	      5.18333916	     11.77103245	     -7.20637983	     17.21031684	     -2.69961423	      0.00000000	    -28.40993134	     -1.42048303	     -6.21671215
      6.65500000	     13.04312987	      3.53664357	      5.97870636	      2.47576124	      0.94562824	     -0.27318360	      5.34467967	     -5.62967304	     -5.84160717	    -53.89642307	     21.24616802	     -3.38504867	      0.00000000	    -16.80142412	      4.97621642	     11.67102052	     -6.91524142	     17.28462716	     -2.59906034	      0.00000000	    -28.37316385	     -1.21227517	     -6.48422976
      6.66000000	     13.07866325	      3.43791826	      6.29321602	      2.48116697	      0.94576249	     -0.27338239	      5.71060655	     -5.49346892	     -6.09415027	    -52.55391477	     21.67830234	     -3.07859291	      0.00000000	    -17.30929248	      4.70952225	     11.65700035	     -6.64968340	     17.36643728	     -2.36844842	      0.00000000	    -28.46083850	     -0.94998495	     -6.95754730
      6.66500000	     13.06523293	      3.34183891	      6.49227098	      2.48656455	      0.94575648	     -0.27350093	      6.13426301	     -5.36171197	     -6.21729093	    -51.16497248	     22.13457581	     -2.70006542	      0.00000000	    -17.75936628	      4.49363771	     11.56990733	     -6.39527974	     17.44496394	     -2.25282175	      0.00000000	    -28.49565060	     -0.73784819	     -7.26626127
      6.67000000	     13.09880525	      3.25842541	      6.74089697	      2.49201131	      0.94580246	     -0.27362003	      6.44971475	     -5.23353406	     -6.37638527	    -49.67372424	     22.50708169	     -2.34459825	      0.00000000	    -18.26909182	      4.25945414	     11.53315110	     -6.12550114	     17.50150824	     -2.08842842	      0.00000000	    -28.57459526	     -0.51696871	     -7.66634155
      6.67500000	     13.07219335	      3.18447598	      6.91938878	      2.49741491	      0.94570267	     -0.27366428	      6.82409183	     -5.11779434	     -6.45324098	    -48.13278679	     22.90426066	     -1.96002893	      0.00000000	    -18.69842684	      4.07003386	     11.43751585	     -5.88699397	     17.57817251	     -1.99117017	      0.00000000	    -28.60038571	     -0.34389727	     -7.95526216
      6.68000000	     13.07259074	      3.11496720	      7.13087326	      2.50286148	      0.94561466	     -0.27372087	      7.11630418	     -5.00219870	     -6.55203356	    -46.49805608	     23.24700692	     -1.58242155	      0.00000000	    -19.15608794	      3.86622214	     11.37787834	     -5.65549153	     17.65511614	     -1.85729813	      0.00000000	    -28.65112062	     -0.16000580	     -8.29041272
      6.68500000	     13.15805563	      3.05763996	      7.39131032	      2.50827806	      0.94562196	     -0.27375737	      7.25972602	     -4.88218922	     -6.68115705	    -44.75788352	     23.51028924	     -1.24377684	      0.00000000	    -19.70217106	      3.63678484	     11.35899339	     -5.42028745	     17.68297348	     -1.70991082	      0.00000000	    -28.81111317	      0.03722945	     -8.70527208
      6.69000000	     13.14169635	      3.01107842	      7.55865397	      2.51372212	      0.94541537	     -0.27372706	      7.50885596	     -4.78422730	     -6.71118877	    -42.98853113	     23.80166661	     -0.87462995	      0.00000000	    -20.13078847	      3.47132175	     11.27460046	     -5.21627433	     17.76632750	     -1.63911078	      0.00000000	    -28.85560324	      0.16885730	     -8.97147437
      6.69500000	     13.23703657	      2.97326496	      7.80605016	      2.51917600	      0.94535023	     -0.27374286	      7.56299780	     -4.68021418	     -6.80602197	    -41.10345284	     23.97738235	     -0.55659031	      0.00000000	    -20.67637786	      3.26087549	     11.26555761	     -5.01486404	     17.79963536	     -1.49854818	      0.00000000	    -29.02794042	      0.34548591	     -9.37228931
